<?xml version="1.0" standalone="no"?>
<!DOCTYPE svg PUBLIC "-//W3C//DTD SVG 20010904//EN"
 "http://www.w3.org/TR/2001/REC-SVG-20010904/DTD/svg10.dtd">
<svg version="1.0" xmlns="http://www.w3.org/2000/svg"
 width="260.000000pt" height="260.000000pt" viewBox="0 0 260.000000 260.000000"
 preserveAspectRatio="xMidYMid meet">
<metadata>
Created by potrace 1.11, written by Peter Selinger 2001-2013
</metadata>
<g transform="translate(0.000000,260.000000) scale(0.100000,-0.100000)"
fill="#000000" stroke="none">
<path d="M1144 2589 c-11 -3 -22 -5 -26 -2 -5 2 -14 1 -20 -4 -7 -4 -22 -8
-33 -9 -11 0 -34 -4 -50 -9 -30 -8 -58 -14 -82 -17 -7 -1 -13 -6 -13 -11 0 -6
-3 -8 -6 -4 -3 3 -18 1 -33 -5 -14 -5 -33 -11 -41 -13 -54 -11 -203 -94 -335
-185 -41 -29 -147 -132 -202 -197 -47 -55 -53 -64 -53 -71 0 -4 -11 -19 -25
-34 -14 -15 -25 -34 -25 -43 0 -8 -4 -15 -8 -15 -9 0 -110 -206 -117 -237 -2
-10 -8 -30 -14 -46 -6 -15 -13 -40 -16 -55 -9 -39 -13 -57 -15 -57 -2 0 -10
-48 -13 -85 -2 -14 -5 -29 -8 -35 -7 -12 -3 -298 5 -342 3 -18 8 -45 10 -60 3
-16 12 -55 22 -88 9 -33 17 -64 18 -70 1 -5 10 -25 19 -42 10 -18 17 -36 17
-40 0 -16 35 -93 43 -93 5 0 5 -5 2 -10 -3 -6 0 -17 7 -25 23 -26 33 -40 36
-55 2 -8 8 -16 13 -18 5 -2 9 -8 9 -14 0 -10 25 -45 65 -92 12 -13 32 -39 45
-56 22 -29 79 -87 129 -130 45 -39 111 -91 111 -86 0 3 12 -6 26 -19 15 -14
33 -25 40 -25 7 0 14 -3 16 -7 6 -16 228 -118 228 -106 0 3 6 1 13 -5 13 -11
118 -39 177 -48 19 -2 51 -8 70 -11 46 -9 293 -8 349 1 25 4 63 11 85 16 22 5
43 7 47 4 4 -2 10 0 14 6 4 6 11 8 16 5 5 -4 9 -2 9 4 0 6 7 8 15 5 8 -4 21
-2 28 4 6 5 30 15 52 22 42 13 186 80 195 89 3 4 22 15 43 26 22 11 49 29 61
40 12 11 26 22 31 25 20 10 130 105 161 140 12 14 36 41 54 60 72 81 171 245
209 345 12 33 26 67 31 75 4 9 11 31 16 50 4 19 8 37 9 40 11 39 16 59 19 80
3 14 5 25 6 25 10 0 21 373 11 390 -6 11 -8 21 -15 75 -3 19 -5 36 -7 38 -5 6
-23 96 -20 101 2 2 -2 7 -8 10 -6 4 -12 16 -14 26 -1 11 -6 26 -10 32 -5 7
-10 22 -12 33 -7 37 -100 210 -142 265 -5 6 -16 22 -25 37 -10 15 -29 38 -43
52 -14 14 -24 26 -21 26 5 0 -102 106 -131 130 -10 8 -38 31 -63 50 -25 19
-47 38 -48 42 -2 5 -7 6 -12 3 -5 -3 -15 2 -24 10 -15 15 -206 117 -206 110 0
-2 -17 3 -37 11 -35 15 -47 19 -103 30 -13 3 -29 9 -35 13 -5 5 -17 9 -25 9
-33 1 -86 10 -103 17 -9 4 -28 5 -42 3 -13 -3 -22 -2 -20 2 6 9 -256 9 -281
-1z"/>
</g>
</svg>
